<svg width="54" height="40" viewBox="0 0 54 40" fill="none" xmlns="http://www.w3.org/2000/svg">
<path d="M40.5 7C37.83 7 35.2199 7.76244 32.9998 9.19089C30.7797 10.6194 29.0494 12.6497 28.0276 15.0251C27.0058 17.4006 26.7385 20.0144 27.2594 22.5362C27.7803 25.0579 29.0661 27.3743 30.9541 29.1924C32.8421 31.0105 35.2475 32.2486 37.8663 32.7502C40.485 33.2518 43.1994 32.9944 45.6662 32.0104C48.133 31.0265 50.2414 29.3602 51.7248 27.2224C53.2082 25.0846 54 22.5712 54 20C54 16.5522 52.5777 13.2456 50.0459 10.8076C47.5142 8.36964 44.0804 7 40.5 7ZM40.5 26.4003C39.1855 26.4003 37.9004 26.0249 36.8074 25.3216C35.7144 24.6184 34.8626 23.6188 34.3595 22.4493C33.8564 21.2798 33.7248 19.9929 33.9813 18.7514C34.2377 17.5098 34.8707 16.3694 35.8003 15.4743C36.7298 14.5792 37.9141 13.9697 39.2033 13.7227C40.4926 13.4758 41.829 13.6025 43.0435 14.0869C44.258 14.5713 45.296 15.3917 46.0263 16.4442C46.7566 17.4967 47.1464 18.7341 47.1464 20C47.145 21.6966 46.4441 23.3231 45.1978 24.5223C43.9515 25.7215 42.2618 26.3951 40.5 26.3951V26.4003Z" fill="black"/>
<path opacity="0.2" d="M20.5 6.63836C18.7388 6.63597 17.0506 5.93553 15.8061 4.69085C14.5616 3.44618 13.8626 1.75904 13.8626 0H7C7.12769 3.49084 8.6059 6.79617 11.1237 9.22071C13.6415 11.6452 17.0026 13 20.5 13C23.9974 13 27.3585 11.6452 29.8763 9.22071C32.3941 6.79617 33.8723 3.49084 34 0H27.1446C27.1446 1.76029 26.4446 3.44851 25.1986 4.69339C23.9525 5.93827 22.2624 6.63788 20.5 6.63836Z" fill="black"/>
<path opacity="0.2" d="M20.5 33.5963C21.373 33.5965 22.2373 33.7623 23.0438 34.0843C23.8502 34.4062 24.5828 34.878 25.1998 35.4727C25.8169 36.0674 26.3062 36.7733 26.6399 37.5501C26.9736 38.3269 27.1451 39.1594 27.1446 40H34C34 36.5522 32.5777 33.2456 30.0459 30.8076C27.5142 28.3696 24.0804 27 20.5 27C16.9196 27 13.4858 28.3696 10.9541 30.8076C8.42232 33.2456 7 36.5522 7 40H13.8626C13.8616 38.3034 14.5602 36.6759 15.8048 35.4751C17.0494 34.2744 18.7382 33.5986 20.5 33.5963Z" fill="black"/>
<path opacity="0.2" d="M6.888 20.0026C6.88652 21.6995 6.16016 23.3264 4.86857 24.5258C3.57698 25.7252 1.82584 26.3989 0 26.3989V33C3.71303 33 7.27399 31.6292 9.8995 29.1891C12.525 26.749 14 23.4395 14 19.9887C13.9936 16.5418 12.5157 13.2381 9.89093 10.8029C7.26611 8.36773 3.70883 6.99999 0 7L0 13.6011C1.82681 13.6011 3.5788 14.2755 4.87055 15.476C6.1623 16.6765 6.888 18.3048 6.888 20.0026Z" fill="black"/>
</svg>
